<?xml version="1.0" encoding="UTF-8"?>
<svg width="95px" height="32px" viewBox="0 0 95 32" version="1.1" xmlns="http://www.w3.org/2000/svg" xmlns:xlink="http://www.w3.org/1999/xlink">
    <!-- Generator: Sketch 44 (41411) - http://www.bohemiancoding.com/sketch -->
    <title>atoms / logo / 01-small@1x</title>
    <desc>Created with Sketch.</desc>
    <defs></defs>
    <g id="atoms" stroke="none" stroke-width="1" fill="none" fill-rule="evenodd">
        <g id="atoms-/-logo-/-01-small">
            <g id="logo">
                <path d="M85.6846667,6.11786667 C84.546,6.40986667 80.5433333,7.16853333 79.8606667,7.8512 L79.858,7.8512 C79.4753333,8.23253333 79.238,8.76186667 79.238,9.34586667 C79.238,9.9272 79.4766667,10.4578667 79.8606667,10.8418667 C80.2446667,11.2245333 80.774,11.4632 81.3553333,11.4632 L85.6846667,11.4632 L85.6846667,12.9605333 L81.3553333,12.9605333 C80.3606667,12.9605333 79.4566667,12.5538667 78.802,11.8992 C78.1486667,11.2458667 77.7406667,10.3405333 77.7406667,9.34586667 C77.7406667,8.35386667 78.1486667,7.44986667 78.8033333,6.7952 L78.802,6.79253333 C78.914,6.68186667 79.0326667,6.57653333 79.158,6.48053333 C79.0326667,6.3832 78.914,6.2792 78.802,6.1672 C78.1486667,5.51386667 77.7406667,4.60853333 77.7406667,3.61386667 C77.7406667,2.62186667 78.1486667,1.71786667 78.8033333,1.0632 L78.802,1.06053333 C79.4566667,0.405866667 80.3606667,0.000533333333 81.3553333,0.000533333333 L85.6846667,0.000533333333 L85.6846667,1.49653333 L81.3553333,1.49653333 C80.774,1.49653333 80.2446667,1.7352 79.8606667,2.1192 L79.858,2.1192 C79.4753333,2.50053333 79.238,3.02986667 79.238,3.61386667 C79.238,4.1952 79.4766667,4.72586667 79.8606667,5.10853333 C80.7606667,6.00853333 81.5126667,5.6912 82.5553333,5.4232 L85.6846667,4.62053333 L85.6846667,6.11786667 Z M86.854,6.11786667 L86.854,4.62053333 L89.7233333,5.35786667 C90.8406667,5.64453333 91.718,6.06853333 92.6766667,5.10853333 C93.0606667,4.72586667 93.2993333,4.19653333 93.2993333,3.6152 L93.2993333,3.61386667 C93.2993333,3.02986667 93.062,2.50053333 92.6793333,2.1192 L92.6766667,2.1192 C92.2926667,1.7352 91.7633333,1.49653333 91.182,1.49653333 L86.854,1.49653333 L86.854,0.000533333333 L91.182,0.000533333333 C92.1766667,0.000533333333 93.0806667,0.4072 93.7353333,1.06053333 L93.734,1.0632 C94.3886667,1.71786667 94.7966667,2.62186667 94.7966667,3.61386667 L94.7966667,3.6152 C94.7966667,4.60986667 94.39,5.51386667 93.7353333,6.1672 C93.6233333,6.2792 93.5046667,6.3832 93.3793333,6.48053333 C93.5046667,6.57653333 93.6233333,6.68186667 93.7353333,6.79253333 L93.734,6.7952 C94.3886667,7.44986667 94.7966667,8.35386667 94.7966667,9.34586667 C94.7966667,10.3405333 94.39,11.2458667 93.7353333,11.8992 C93.0806667,12.5538667 92.1766667,12.9605333 91.182,12.9605333 L86.854,12.9605333 L86.854,11.4645333 L91.182,11.4645333 C91.7633333,11.4645333 92.2926667,11.2245333 92.6766667,10.8418667 C93.0606667,10.4578667 93.2993333,9.9272 93.2993333,9.34586667 C93.2993333,8.7632 93.062,8.23253333 92.6793333,7.8512 L92.6766667,7.8512 C91.994,7.16853333 87.9913333,6.40986667 86.854,6.11786667 Z" id="Symbol" fill="#24969D"></path>
                <path d="M0.0548,13.8990667 C0.8468,13.7310667 2.09746667,13.6057333 3.36946667,13.6057333 C5.18146667,13.6057333 6.34946667,13.9190667 7.22413333,14.6284 C7.95346667,15.1697333 8.3908,16.0030667 8.3908,17.1084 C8.3908,18.4617333 7.4948,19.6497333 6.01613333,20.1924 L6.01613333,20.2337333 C7.34946667,20.5670667 8.91213333,21.6710667 8.91213333,23.7550667 C8.91213333,24.9644 8.43346667,25.8817333 7.72413333,26.5697333 C6.74546667,27.4657333 5.16146667,27.8817333 2.86813333,27.8817333 C1.6188,27.8817333 0.6588,27.7990667 0.0548,27.7150667 L0.0548,13.8990667 Z M1.86813333,26.3817333 C2.2228,26.4444 2.74413333,26.4644 3.38946667,26.4644 C5.26546667,26.4644 6.9948,25.7777333 6.9948,23.7350667 C6.9948,21.8177333 5.34946667,21.0257333 3.36946667,21.0257333 L1.86813333,21.0257333 L1.86813333,26.3817333 Z M1.86813333,19.6497333 L3.5148,19.6497333 C5.43213333,19.6497333 6.55746667,18.6497333 6.55746667,17.2950667 C6.55746667,15.6484 5.3068,15.0030667 3.47346667,15.0030667 C2.6388,15.0030667 2.16013333,15.0657333 1.86813333,15.1284 L1.86813333,19.6497333 Z M10.012,27.7573333 L10.012,17.6706667 L11.8466667,17.6706667 L11.8466667,27.7573333 L10.012,27.7573333 Z M12.0546667,14.836 C12.0746667,15.4613333 11.616,15.9613333 10.8866667,15.9613333 C10.2413333,15.9613333 9.78266667,15.4613333 9.78266667,14.836 C9.78266667,14.1906667 10.2613333,13.6906667 10.928,13.6906667 C11.616,13.6906667 12.0546667,14.1906667 12.0546667,14.836 Z M12.4456,26.6946667 L17.0096,20.7546667 C17.4469333,20.2133333 17.8642667,19.7333333 18.3229333,19.192 L18.3229333,19.1493333 L12.8629333,19.1493333 L12.8629333,17.6706667 L20.5522667,17.6706667 L20.5309333,18.816 L16.0296,24.672 C15.6136,25.236 15.1962667,25.736 14.7376,26.256 L14.7376,26.2986667 L20.6362667,26.2986667 L20.6362667,27.7573333 L12.4456,27.7573333 L12.4456,26.6946667 Z M31.6514667,27.3612 C31.0674667,27.6532 29.7541333,27.9652 28.0461333,27.9652 C23.1901333,27.9652 20.6888,24.9438667 20.6888,20.9425333 C20.6888,16.1492 24.1074667,13.4812 28.3581333,13.4812 C30.0048,13.4812 31.2554667,13.8145333 31.8181333,14.1065333 L31.1714667,16.6278667 C30.5261333,16.3572 29.6301333,16.1078667 28.5048,16.1078667 C25.9821333,16.1078667 24.0234667,17.6292 24.0234667,20.7545333 C24.0234667,23.5678667 25.6914667,25.3398667 28.5248,25.3398667 C29.4834667,25.3398667 30.5461333,25.1305333 31.1714667,24.8812 L31.6514667,27.3612 Z M38.1872,27.7572 L38.0005333,26.7358667 L37.9378667,26.7358667 C37.2712,27.5478667 36.2285333,27.9865333 35.0205333,27.9865333 C32.9565333,27.9865333 31.7272,26.4865333 31.7272,24.8612 C31.7272,22.2132 34.1032,20.9425333 37.7085333,20.9638667 L37.7085333,20.8172 C37.7085333,20.2745333 37.4165333,19.5038667 35.8538667,19.5038667 C34.8112,19.5038667 33.7072,19.8585333 33.0405333,20.2745333 L32.4565333,18.2332 C33.1645333,17.8372 34.5618667,17.3372 36.4165333,17.3372 C39.8138667,17.3372 40.8965333,19.3372 40.8965333,21.7345333 L40.8965333,25.2772 C40.8965333,26.2558667 40.9392,27.1945333 41.0432,27.7572 L38.1872,27.7572 Z M37.8125333,22.9425333 C36.1458667,22.9225333 34.8538667,23.3185333 34.8538667,24.5478667 C34.8538667,25.3612 35.3952,25.7558667 36.1032,25.7558667 C36.8952,25.7558667 37.5418667,25.2358667 37.7498667,24.5892 C37.7912,24.4225333 37.8125333,24.2345333 37.8125333,24.0478667 L37.8125333,22.9425333 Z M42.2377333,20.9836 C42.2377333,19.6502667 42.1964,18.5036 42.1550667,17.5662667 L44.9057333,17.5662667 L45.0510667,18.9836 L45.0937333,18.9836 C45.8430667,17.8996 47.0110667,17.3369333 48.4897333,17.3369333 C50.7204,17.3369333 52.7204,19.2756 52.7204,22.5262667 C52.7204,26.2356 50.3657333,27.9862667 48.0937333,27.9862667 C46.8644,27.9862667 45.9057333,27.4862667 45.4470667,26.8196 L45.4057333,26.8196 L45.4057333,31.8836 L42.2377333,31.8836 L42.2377333,20.9836 Z M45.4057333,23.3809333 C45.4057333,23.6316 45.4270667,23.8596 45.4684,24.0476 C45.6764,24.9022667 46.4057333,25.5476 47.3230667,25.5476 C48.6990667,25.5476 49.5110667,24.4022667 49.5110667,22.6716 C49.5110667,21.0462667 48.7817333,19.8169333 47.3644,19.8169333 C46.4684,19.8169333 45.6764,20.4836 45.4684,21.4209333 C45.4270667,21.5889333 45.4057333,21.7969333 45.4057333,21.9849333 L45.4057333,23.3809333 Z M53.5893333,27.756 L53.5893333,17.5653333 L56.7573333,17.5653333 L56.7573333,27.756 L53.5893333,27.756 Z M56.8613333,14.732 C56.8613333,15.6066667 56.1933333,16.316 55.152,16.316 C54.152,16.316 53.4853333,15.6066667 53.5053333,14.732 C53.4853333,13.8146667 54.152,13.1266667 55.172,13.1266667 C56.1933333,13.1266667 56.84,13.8146667 56.8613333,14.732 Z M61.6846667,14.6481333 L61.6846667,17.5654667 L63.9566667,17.5654667 L63.9566667,19.9001333 L61.6846667,19.9001333 L61.6846667,23.5881333 C61.6846667,24.8188 61.9766667,25.3814667 62.9353333,25.3814667 C63.3313333,25.3814667 63.6433333,25.3401333 63.8726667,25.2974667 L63.894,27.6948 C63.4766667,27.8614667 62.7273333,27.9654667 61.83,27.9654667 C60.81,27.9654667 59.9553333,27.6108 59.454,27.0908 C58.8713333,26.4854667 58.5793333,25.5068 58.5793333,24.0681333 L58.5793333,19.9001333 L57.2246667,19.9001333 L57.2246667,17.5654667 L58.5793333,17.5654667 L58.5793333,15.3574667 L61.6846667,14.6481333 Z M70.5258667,27.7572 L70.3392,26.7358667 L70.2765333,26.7358667 C69.6098667,27.5478667 68.5672,27.9865333 67.3592,27.9865333 C65.2952,27.9865333 64.0658667,26.4865333 64.0658667,24.8612 C64.0658667,22.2132 66.4418667,20.9425333 70.0472,20.9638667 L70.0472,20.8172 C70.0472,20.2745333 69.7552,19.5038667 68.1925333,19.5038667 C67.1498667,19.5038667 66.0458667,19.8585333 65.3792,20.2745333 L64.7952,18.2332 C65.5032,17.8372 66.9005333,17.3372 68.7552,17.3372 C72.1525333,17.3372 73.2352,19.3372 73.2352,21.7345333 L73.2352,25.2772 C73.2352,26.2558667 73.2778667,27.1945333 73.3818667,27.7572 L70.5258667,27.7572 Z M70.1512,22.9425333 C68.4845333,22.9225333 67.1925333,23.3185333 67.1925333,24.5478667 C67.1925333,25.3612 67.7338667,25.7558667 68.4418667,25.7558667 C69.2338667,25.7558667 69.8805333,25.2358667 70.0885333,24.5892 C70.1298667,24.4225333 70.1512,24.2345333 70.1512,24.0478667 L70.1512,22.9425333 Z M74.5733333,27.7573333 L74.5733333,12.9613333 L77.7413333,12.9613333 L77.7413333,27.7573333 L74.5733333,27.7573333 Z" id="Type" fill="#4F5057"></path>
            </g>
        </g>
    </g>
</svg>